<?xml version="1.0" standalone="no"?>
<!DOCTYPE svg PUBLIC "-//W3C//DTD SVG 20010904//EN"
 "http://www.w3.org/TR/2001/REC-SVG-20010904/DTD/svg10.dtd">
<svg version="1.0" xmlns="http://www.w3.org/2000/svg"
 width="20px" height="20px" viewBox="0 0 512.000000 512.000000"
 preserveAspectRatio="xMidYMid meet">

<g transform="translate(0.000000,512.000000) scale(0.100000,-0.100000)" stroke="none">
<path d="M157 4805 c-58 -22 -94 -52 -124 -103 l-28 -47 -3 -1913 c-2 -1623 0
-1923 12 -1981 23 -109 71 -195 156 -282 77 -78 140 -117 250 -155 53 -18 122
-19 2140 -19 2018 0 2087 1 2140 19 110 38 173 77 250 155 52 53 85 97 108
145 66 135 63 42 60 1829 l-3 1624 -30 49 c-19 30 -49 60 -79 79 l-49 30 -208
3 -208 3 -3 208 -3 208 -30 49 c-19 30 -49 60 -79 79 l-49 30 -2091 2 c-1769
1 -2097 0 -2129 -12z m4155 -2022 l3 -1808 27 -51 c40 -77 110 -132 187 -149
112 -24 181 16 181 106 0 61 -34 99 -105 114 -16 4 -38 14 -48 22 -16 15 -17
100 -17 1505 l0 1488 175 0 175 0 0 -1569 c0 -1005 -4 -1587 -10 -1621 -22
-115 -90 -202 -200 -254 l-65 -31 -2055 0 -2055 0 -65 31 c-110 52 -178 139
-200 254 -6 34 -10 713 -10 1911 l0 1859 2040 0 2040 0 2 -1807z"/>
<path d="M734 4086 c-29 -29 -34 -41 -34 -79 0 -37 6 -51 29 -75 17 -16 44
-32 62 -36 56 -11 2930 -7 2971 4 48 14 81 58 80 110 -1 45 -16 72 -53 94 -25
15 -163 16 -1524 16 l-1497 0 -34 -34z"/>
<path d="M735 3507 c-26 -26 -34 -44 -40 -88 -3 -29 -5 -310 -3 -624 3 -621 1
-592 60 -633 21 -15 83 -17 621 -20 397 -2 611 1 637 8 25 7 47 22 62 43 l23
32 3 585 c2 322 0 604 -3 627 -4 29 -16 53 -36 73 l-31 30 -630 0 -630 0 -33
-33z m1125 -667 l0 -470 -465 0 -465 0 0 470 0 470 465 0 465 0 0 -470z"/>
<path d="M2482 3510 c-29 -29 -40 -64 -34 -107 5 -32 55 -79 93 -87 41 -8
1167 -8 1208 0 38 8 88 55 93 87 6 43 -5 78 -34 107 l-30 30 -633 0 -633 0
-30 -30z"/>
<path d="M2538 2963 c-15 -2 -41 -18 -58 -34 -25 -26 -30 -38 -30 -79 0 -40 5
-53 29 -78 17 -16 44 -32 62 -36 41 -8 1167 -8 1208 0 18 4 45 20 62 36 24 25
29 38 29 78 0 40 -5 53 -29 78 -18 17 -45 32 -68 35 -41 7 -1160 7 -1205 0z"/>
<path d="M2533 2383 c-13 -2 -36 -18 -53 -34 -25 -26 -30 -38 -30 -79 0 -40 5
-53 29 -78 18 -17 45 -32 68 -35 50 -9 1146 -9 1196 0 23 3 50 18 68 35 24 25
29 38 29 78 0 40 -5 53 -29 78 -17 16 -44 32 -62 36 -34 7 -1180 6 -1216 -1z"/>
<path d="M783 1803 c-13 -2 -36 -18 -53 -34 -24 -25 -30 -39 -30 -76 0 -38 5
-50 34 -79 l34 -34 630 0 630 0 31 31 c61 61 35 166 -47 189 -36 10 -1179 13
-1229 3z"/>
<path d="M2533 1803 c-30 -6 -81 -57 -85 -86 -6 -43 5 -78 34 -107 l30 -30
633 0 633 0 30 30 c29 29 40 64 34 107 -5 32 -55 79 -93 87 -34 7 -1180 6
-1216 -1z"/>
<path d="M783 1223 c-13 -2 -36 -18 -53 -34 -24 -25 -30 -39 -30 -76 0 -38 5
-50 34 -79 l34 -34 621 0 c675 0 661 -1 691 55 33 61 4 139 -61 162 -25 9
-191 12 -624 11 -324 0 -600 -3 -612 -5z"/>
<path d="M2523 1219 c-62 -18 -97 -111 -62 -167 33 -53 18 -52 684 -52 666 0
651 -1 684 52 36 58 0 149 -67 168 -47 13 -1194 12 -1239 -1z"/>
</g>
</svg>
