<?xml version="1.0" standalone="no"?>
<!DOCTYPE svg PUBLIC "-//W3C//DTD SVG 20010904//EN"
 "http://www.w3.org/TR/2001/REC-SVG-20010904/DTD/svg10.dtd">
<svg version="1.0" xmlns="http://www.w3.org/2000/svg"
 width="25px" height="25px" viewBox="0 0 512.000000 512.000000"
 preserveAspectRatio="xMidYMid meet">

<g transform="translate(0.000000,512.000000) scale(0.100000,-0.100000)" stroke="none">
<path d="M1447 4382 c-11 -12 -17 -41 -19 -87 l-3 -70 -110 -6 c-73 -4 -132
-14 -175 -28 -205 -70 -365 -233 -438 -446 l-27 -80 0 -1195 0 -1195 27 -80
c72 -210 214 -359 422 -439 l81 -31 1345 0 1345 0 75 23 c209 65 373 229 448
447 l27 80 0 1195 0 1195 -27 80 c-39 113 -92 198 -173 280 -117 116 -256 182
-406 192 l-77 6 -4 74 c-4 82 -18 103 -68 103 -45 0 -60 -27 -60 -108 l0 -72
-500 0 -500 0 0 68 c0 81 -17 112 -61 112 -50 0 -69 -30 -69 -110 l0 -70 -470
0 -470 0 0 54 c0 58 -13 106 -33 118 -21 14 -64 8 -80 -10z m-19 -368 l3 -82
-30 -10 c-46 -16 -118 -88 -137 -137 -38 -101 3 -225 95 -290 40 -28 49 -30
131 -30 82 0 91 2 131 30 24 17 57 50 74 74 27 39 30 50 30 125 0 74 -3 87
-30 132 -21 33 -47 59 -82 79 l-52 30 -1 83 0 82 470 0 470 0 0 -82 0 -83 -50
-27 c-146 -81 -168 -279 -44 -388 51 -44 93 -60 161 -60 138 1 237 101 237
240 0 99 -54 183 -142 219 l-32 13 0 84 0 84 500 0 500 0 0 -84 c0 -79 -1 -84
-23 -90 -46 -11 -104 -64 -131 -117 -30 -61 -35 -148 -12 -203 19 -45 72 -104
115 -126 211 -107 439 118 332 328 -23 44 -93 110 -128 118 -22 6 -23 11 -23
90 l0 83 53 -5 c191 -20 354 -127 439 -290 51 -96 68 -175 68 -316 l0 -118
-1760 0 -1760 0 0 118 c0 69 6 143 15 181 52 220 242 392 465 421 30 5 75 7
100 6 l45 -1 3 -81z m19 -306 c17 -19 59 -23 81 -9 7 4 19 27 26 50 l12 43 18
-28 c59 -89 -24 -205 -126 -175 -73 22 -103 116 -55 177 l22 29 3 -35 c2 -19
11 -43 19 -52z m1073 -2 c17 -21 69 -20 92 1 11 10 18 30 18 52 l0 35 23 -22
c30 -30 31 -110 2 -142 -54 -61 -138 -56 -183 10 -27 40 -25 84 5 129 l17 26
6 -37 c4 -20 12 -44 20 -52z m1110 52 c0 -42 25 -68 65 -68 39 0 54 16 62 66
l6 37 24 -27 c26 -31 30 -86 9 -124 -18 -33 -66 -62 -101 -62 -36 0 -89 31
-106 61 -17 33 -14 91 6 122 23 36 35 34 35 -5z m690 -1465 c0 -1052 1 -1026
-66 -1154 -68 -129 -197 -234 -339 -276 -56 -16 -147 -18 -1285 -21 -1270 -3
-1371 -1 -1471 38 -120 45 -233 145 -293 259 -68 129 -66 92 -66 1149 l0 952
1760 0 1760 0 0 -947z"/>
<path d="M1290 2514 c-20 -23 -16 -75 5 -90 14 -10 59 -14 172 -14 140 0 155
2 173 20 24 24 25 48 4 78 -15 21 -21 22 -178 22 -136 0 -166 -3 -176 -16z"/>
<path d="M2416 2508 c-9 -12 -16 -29 -16 -38 0 -9 7 -26 16 -38 15 -21 21 -22
173 -22 140 0 160 2 174 18 21 23 22 66 1 86 -13 13 -43 16 -174 16 -153 0
-159 -1 -174 -22z"/>
<path d="M3496 2515 c-9 -9 -16 -29 -16 -45 0 -56 15 -61 193 -58 l161 3 16
28 c13 24 13 30 0 55 l-16 27 -161 3 c-137 2 -164 0 -177 -13z"/>
<path d="M1295 2255 c-30 -29 -31 -45 -4 -79 l20 -26 154 0 154 0 20 26 c27
34 26 50 -4 79 -23 24 -28 25 -170 25 -142 0 -147 -1 -170 -25z"/>
<path d="M2422 2260 c-27 -26 -28 -64 -2 -90 18 -18 33 -20 168 -20 170 0 192
7 192 65 0 57 -22 65 -190 65 -133 0 -148 -2 -168 -20z"/>
<path d="M3502 2264 c-15 -10 -22 -25 -22 -49 0 -58 22 -65 192 -65 135 0 150
2 168 20 28 28 25 64 -6 89 -24 19 -40 21 -168 21 -112 0 -146 -3 -164 -16z"/>
<path d="M1320 1711 c-35 -10 -55 -53 -39 -83 7 -13 17 -26 23 -30 6 -4 80 -8
164 -8 139 0 154 2 172 20 25 25 25 51 1 81 -18 23 -25 24 -158 26 -76 1 -149
-2 -163 -6z"/>
<path d="M2450 1713 c-48 -18 -63 -60 -34 -101 15 -21 21 -22 173 -22 140 0
160 2 174 18 18 19 22 59 9 79 -15 24 -66 33 -185 32 -67 0 -129 -3 -137 -6z"/>
<path d="M3525 1713 c-45 -10 -61 -76 -27 -106 16 -14 43 -17 175 -17 l157 0
16 26 c22 32 10 73 -26 91 -24 12 -249 17 -295 6z"/>
<path d="M1295 1435 c-14 -13 -25 -31 -25 -40 0 -9 11 -27 25 -40 23 -24 28
-25 170 -25 142 0 147 1 170 25 30 29 31 45 4 79 l-20 26 -150 0 c-146 0 -151
-1 -174 -25z"/>
<path d="M2420 1440 c-11 -11 -20 -31 -20 -45 0 -14 9 -34 20 -45 18 -18 33
-20 168 -20 170 0 192 7 192 65 0 58 -22 65 -192 65 -135 0 -150 -2 -168 -20z"/>
<path d="M3502 1444 c-15 -10 -22 -25 -22 -49 0 -57 22 -65 190 -65 140 0 147
1 168 23 28 30 28 58 -1 85 -22 21 -33 22 -168 22 -115 0 -149 -3 -167 -16z"/>
</g>
</svg>
