<?xml version="1.0" standalone="no"?>
<!DOCTYPE svg PUBLIC "-//W3C//DTD SVG 20010904//EN"
 "http://www.w3.org/TR/2001/REC-SVG-20010904/DTD/svg10.dtd">
<svg version="1.0" xmlns="http://www.w3.org/2000/svg"
 width="25px" height="25px" viewBox="0 0 512.000000 512.000000"
 preserveAspectRatio="xMidYMid meet">

<g transform="translate(0.000000,512.000000) scale(0.100000,-0.100000)"
stroke="none">
<path d="M2315 5109 c-800 -83 -1501 -517 -1927 -1196 -494 -786 -516 -1810
-56 -2613 120 -209 236 -361 411 -539 404 -410 905 -658 1502 -743 119 -17
512 -16 635 1 622 86 1142 357 1571 818 612 659 825 1632 547 2501 -126 396
-341 745 -639 1039 -401 396 -883 636 -1444 719 -123 18 -478 26 -600 13z
m488 -563 c545 -139 869 -714 701 -1246 -49 -157 -117 -271 -234 -394 -151
-158 -329 -253 -546 -291 -542 -94 -1067 291 -1143 839 -15 105 -14 184 4 293
69 428 413 762 847 823 98 14 264 3 371 -24z m-979 -2192 c280 -89 460 -117
736 -117 282 0 469 30 745 120 99 32 121 36 220 36 94 0 122 -4 194 -28 143
-49 248 -128 331 -252 42 -62 61 -109 117 -281 97 -300 96 -356 -9 -497 -71
-95 -285 -308 -385 -383 -744 -560 -1757 -541 -2483 45 -95 77 -260 247 -328
338 -106 143 -107 193 -12 486 92 284 144 367 296 468 172 115 353 135 578 65z"/>
</g>
</svg>
