<?xml version="1.0" standalone="no"?>
<!DOCTYPE svg PUBLIC "-//W3C//DTD SVG 20010904//EN"
 "http://www.w3.org/TR/2001/REC-SVG-20010904/DTD/svg10.dtd">
<svg version="1.0" xmlns="http://www.w3.org/2000/svg"
 width="22px" height="22px" viewBox="0 0 512.000000 512.000000"
 preserveAspectRatio="xMidYMid meet">

<g transform="translate(0.000000,512.000000) scale(0.100000,-0.100000)"
 stroke="none">
<path d="M294 4670 c-199 -70 -319 -266 -286 -466 39 -236 261 -397 490 -355
340 62 471 473 228 717 -86 85 -182 124 -306 123 -45 0 -95 -8 -126 -19z m216
-211 c60 -27 79 -45 106 -104 29 -60 30 -116 5 -170 -46 -99 -139 -146 -245
-123 -69 15 -139 85 -154 154 -38 174 130 315 288 243z"/>
<path d="M1321 4664 c-38 -32 -49 -80 -27 -123 34 -66 -111 -61 1906 -61 2017
0 1872 -5 1906 61 22 43 11 91 -27 123 l-31 26 -1848 0 -1848 0 -31 -26z"/>
<path d="M1321 4024 c-38 -32 -49 -80 -27 -123 34 -65 -34 -61 1154 -61 744 0
1089 3 1110 11 69 24 87 116 33 170 l-29 29 -1105 0 -1105 0 -31 -26z"/>
<path d="M363 2980 c-79 -12 -176 -62 -236 -122 -166 -166 -166 -430 0 -596
136 -136 351 -165 516 -68 65 38 134 116 170 194 30 62 32 75 32 172 0 97 -2
110 -32 172 -83 177 -262 275 -450 248z m152 -229 c130 -59 164 -225 69 -331
-97 -108 -273 -87 -343 40 -60 108 -8 252 109 299 40 16 122 12 165 -8z"/>
<path d="M1365 2983 c-88 -23 -111 -140 -37 -190 26 -17 100 -18 1872 -18
1772 0 1846 1 1872 18 58 39 58 135 0 174 -26 17 -101 18 -1857 19 -1007 1
-1839 0 -1850 -3z"/>
<path d="M1365 2343 c-88 -23 -111 -140 -37 -190 26 -17 77 -18 1129 -18
l1103 0 31 32 c45 44 45 102 0 146 l-31 32 -1088 1 c-598 1 -1096 0 -1107 -3z"/>
<path d="M340 1269 c-216 -42 -371 -269 -331 -487 62 -340 473 -471 717 -228
84 85 124 181 124 302 0 266 -245 465 -510 413z m175 -224 c67 -27 125 -115
125 -190 0 -42 -29 -116 -58 -149 -26 -30 -113 -66 -157 -66 -66 1 -141 43
-180 103 -25 39 -35 107 -23 161 8 38 21 60 58 97 67 66 145 81 235 44z"/>
<path d="M1338 1264 c-65 -35 -73 -121 -17 -168 l31 -26 1848 0 1848 0 31 26
c38 32 49 80 27 123 -34 66 112 61 -1908 61 -1602 -1 -1836 -3 -1860 -16z"/>
<path d="M1338 624 c-65 -35 -73 -121 -17 -168 l31 -26 1105 0 1105 0 29 29
c54 54 36 146 -33 170 -21 8 -366 11 -1112 11 -937 -1 -1085 -3 -1108 -16z"/>
</g>
</svg>
