<?xml version="1.0" standalone="no"?>
<!DOCTYPE svg PUBLIC "-//W3C//DTD SVG 20010904//EN"
 "http://www.w3.org/TR/2001/REC-SVG-20010904/DTD/svg10.dtd">
<svg version="1.0" xmlns="http://www.w3.org/2000/svg"
 width="25px" height="25px" viewBox="0 0 512.000000 512.000000"
 preserveAspectRatio="xMidYMid meet">

<g transform="translate(0.000000,512.000000) scale(0.100000,-0.100000)"
fill="var(--inverted-primary-color)" stroke="none">
<path d="M554 4036 c-43 -19 -101 -81 -115 -123 -30 -92 7 -198 88 -253 l37
-25 1676 0 1677 0 39 27 c21 15 50 44 64 65 21 31 25 48 25 113 0 65 -4 82
-25 113 -14 21 -43 50 -64 65 l-39 27 -1666 2 c-1380 2 -1671 0 -1697 -11z"/>
<path d="M4380 4028 c-25 -14 -58 -44 -75 -67 -27 -39 -30 -50 -30 -121 0 -71
3 -82 30 -121 45 -64 104 -91 186 -87 77 4 123 30 167 92 24 35 27 49 27 116
0 67 -3 81 -27 116 -44 62 -90 88 -167 92 -55 3 -74 -1 -111 -20z"/>
<path d="M554 2756 c-43 -19 -101 -81 -115 -123 -30 -92 7 -198 88 -253 l37
-25 1996 0 1996 0 37 25 c21 14 50 43 65 64 24 35 27 49 27 116 0 67 -3 81
-27 116 -15 21 -44 50 -65 64 l-37 25 -1985 2 c-1648 2 -1991 0 -2017 -11z"/>
<path d="M539 1467 c-24 -13 -57 -43 -74 -66 -27 -39 -30 -50 -30 -120 0 -68
3 -82 27 -117 15 -21 44 -50 65 -64 l37 -25 1996 0 1996 0 37 25 c21 14 50 43
65 64 24 35 27 49 27 117 0 71 -3 81 -31 120 -18 24 -51 54 -75 66 l-42 23
-1977 0 -1977 0 -44 -23z"/>
</g>
</svg>
