<?xml version="1.0" standalone="no"?>
<!DOCTYPE svg PUBLIC "-//W3C//DTD SVG 20010904//EN"
 "http://www.w3.org/TR/2001/REC-SVG-20010904/DTD/svg10.dtd">
<svg version="1.0" xmlns="http://www.w3.org/2000/svg"
 width="22px" height="22px" viewBox="0 0 512.000000 512.000000"
 preserveAspectRatio="xMidYMid meet">

<g transform="translate(0.000000,512.000000) scale(0.100000,-0.100000)"
 stroke="none">
<path d="M361 5104 c-169 -45 -301 -180 -346 -351 -22 -85 -22 -1581 0 -1666
45 -173 178 -307 350 -352 89 -23 1581 -23 1670 0 172 45 305 179 350 352 23
87 22 1581 0 1668 -45 172 -179 305 -352 350 -84 22 -1590 21 -1672 -1z m1645
-330 c15 -11 37 -33 48 -48 21 -27 21 -35 21 -806 0 -771 0 -779 -21 -806 -11
-15 -33 -37 -48 -48 -27 -21 -35 -21 -806 -21 -771 0 -779 0 -806 21 -15 11
-37 33 -48 48 -21 27 -21 38 -24 779 -2 414 0 766 3 784 7 40 49 91 90 109 24
11 175 13 797 11 757 -2 767 -2 794 -23z"/>
<path d="M3081 5104 c-169 -45 -301 -180 -346 -351 -22 -85 -22 -1581 0 -1666
45 -173 178 -307 350 -352 89 -23 1581 -23 1670 0 172 45 305 179 350 352 23
87 22 1581 0 1668 -45 172 -179 305 -352 350 -84 22 -1590 21 -1672 -1z m1645
-330 c15 -11 37 -33 48 -48 21 -27 21 -35 21 -806 0 -771 0 -779 -21 -806 -11
-15 -33 -37 -48 -48 -27 -21 -35 -21 -806 -21 -771 0 -779 0 -806 21 -15 11
-37 33 -48 48 -21 27 -21 38 -24 779 -2 414 0 766 3 784 7 40 49 91 90 109 24
11 175 13 797 11 757 -2 767 -2 794 -23z"/>
<path d="M361 2384 c-169 -45 -301 -180 -346 -351 -22 -85 -22 -1581 0 -1666
45 -173 178 -307 350 -352 89 -23 1581 -23 1670 0 172 45 305 179 350 352 23
87 22 1581 0 1668 -45 172 -179 305 -352 350 -84 22 -1590 21 -1672 -1z m1645
-330 c15 -11 37 -33 48 -48 21 -27 21 -35 21 -806 0 -771 0 -779 -21 -806 -11
-15 -33 -37 -48 -48 -27 -21 -35 -21 -806 -21 -771 0 -779 0 -806 21 -15 11
-37 33 -48 48 -21 27 -21 38 -24 779 -2 414 0 766 3 784 7 40 49 91 90 109 24
11 175 13 797 11 757 -2 767 -2 794 -23z"/>
<path d="M3081 2384 c-169 -45 -301 -180 -346 -351 -22 -85 -22 -1581 0 -1666
45 -173 178 -307 350 -352 89 -23 1581 -23 1670 0 172 45 305 179 350 352 23
87 22 1581 0 1668 -45 172 -179 305 -352 350 -84 22 -1590 21 -1672 -1z m1645
-330 c15 -11 37 -33 48 -48 21 -27 21 -35 21 -806 0 -771 0 -779 -21 -806 -11
-15 -33 -37 -48 -48 -27 -21 -35 -21 -806 -21 -771 0 -779 0 -806 21 -15 11
-37 33 -48 48 -21 27 -21 38 -24 779 -2 414 0 766 3 784 7 40 49 91 90 109 24
11 175 13 797 11 757 -2 767 -2 794 -23z"/>
</g>
</svg>
