<?xml version="1.0" standalone="no"?>
<!DOCTYPE svg PUBLIC "-//W3C//DTD SVG 20010904//EN"
 "http://www.w3.org/TR/2001/REC-SVG-20010904/DTD/svg10.dtd">
<svg version="1.0" xmlns="http://www.w3.org/2000/svg"
 width="25px" height="25px" viewBox="0 0 512.000000 512.000000"
 preserveAspectRatio="xMidYMid meet">

<g transform="translate(0.000000,512.000000) scale(0.100000,-0.100000)" stroke="none">
<path d="M2330 3813 c-768 -78 -1448 -488 -1862 -1122 -41 -64 -68 -115 -68
-132 0 -31 113 -205 211 -326 425 -522 1041 -856 1703 -924 150 -15 485 -7
616 15 437 73 804 229 1145 485 123 93 322 285 420 406 109 134 225 312 225
345 0 32 -111 204 -211 327 -413 507 -1007 838 -1649 918 -113 14 -428 19
-530 8z m517 -168 c268 -36 503 -107 742 -225 250 -125 421 -246 615 -438 143
-141 336 -383 336 -422 0 -21 -121 -189 -217 -301 -323 -375 -799 -652 -1293
-753 -319 -64 -655 -63 -970 5 -323 70 -699 250 -965 463 -96 78 -254 234
-341 339 -80 94 -174 229 -174 247 0 21 121 189 215 298 366 425 894 708 1470
786 140 19 437 19 582 1z"/>
<path d="M2394 3326 c-149 -34 -278 -109 -394 -226 -85 -87 -146 -186 -186
-305 -39 -115 -45 -286 -15 -405 69 -279 273 -499 541 -582 63 -19 97 -23 215
-23 119 0 151 4 215 23 261 82 450 264 536 517 38 115 45 284 15 408 -64 267
-257 479 -518 570 -77 26 -104 31 -218 33 -86 3 -151 -1 -191 -10z m311 -161
c109 -28 202 -81 285 -164 128 -127 190 -270 190 -441 0 -173 -58 -311 -184
-435 -127 -126 -267 -185 -441 -185 -323 0 -597 263 -613 588 -6 118 10 197
58 297 60 126 187 250 308 302 122 53 280 68 397 38z"/>
</g>
</svg>
