<?xml version="1.0" standalone="no"?>
<!DOCTYPE svg PUBLIC "-//W3C//DTD SVG 20010904//EN"
 "http://www.w3.org/TR/2001/REC-SVG-20010904/DTD/svg10.dtd">
<svg version="1.0" xmlns="http://www.w3.org/2000/svg"
 width="25px" height="25px" viewBox="0 0 512.000000 512.000000"
 preserveAspectRatio="xMidYMid meet">

<g transform="translate(0.000000,512.000000) scale(0.100000,-0.100000)" stroke="none">
<path d="M2273 4964 c-597 -72 -1160 -373 -1551 -829 -491 -572 -689 -1360
-526 -2094 82 -372 271 -754 517 -1046 453 -538 1139 -855 1847 -855 546 0
1091 192 1520 537 485 388 812 983 885 1609 92 790 -222 1590 -830 2112 -291
250 -677 442 -1056 526 -246 55 -559 70 -806 40z m525 -134 c776 -83 1454
-554 1805 -1256 172 -345 246 -690 234 -1094 -10 -342 -78 -612 -231 -925
-109 -222 -227 -393 -380 -553 l-80 -83 -17 98 c-58 343 -209 634 -456 878
-169 168 -396 306 -621 379 l-104 33 70 47 c82 54 203 179 251 259 40 67 74
151 98 238 24 87 24 299 0 388 -45 165 -102 265 -222 386 -124 126 -252 196
-419 232 -102 22 -307 13 -401 -17 -244 -78 -441 -255 -531 -478 -47 -117 -59
-180 -59 -317 1 -147 16 -224 70 -341 65 -142 181 -277 309 -359 l59 -38 -103
-33 c-458 -150 -823 -495 -995 -942 -39 -103 -81 -263 -91 -354 l-7 -60 -59
59 c-254 249 -470 636 -569 1018 -60 233 -85 556 -60 796 93 897 706 1658
1561 1937 159 53 298 82 495 105 69 9 363 6 453 -3z m-70 -1116 c178 -40 362
-186 447 -355 55 -108 70 -176 70 -314 -1 -146 -14 -205 -71 -315 -94 -179
-250 -304 -444 -356 -87 -22 -253 -22 -340 0 -200 53 -360 184 -451 371 -54
110 -72 204 -66 335 10 208 105 389 264 509 180 135 371 175 591 125z m122
-1529 c41 -9 121 -32 177 -50 541 -180 936 -684 979 -1250 8 -101 22 -81 -133
-191 -278 -196 -592 -324 -958 -390 -143 -26 -567 -26 -710 0 -387 69 -707
205 -1014 430 l-83 61 6 87 c23 334 172 655 421 903 164 164 337 274 551 348
85 29 140 43 294 71 59 11 397 -3 470 -19z"/>
</g>
</svg>
