<?xml version="1.0" standalone="no"?>
<!DOCTYPE svg PUBLIC "-//W3C//DTD SVG 20010904//EN"
 "http://www.w3.org/TR/2001/REC-SVG-20010904/DTD/svg10.dtd">
<svg version="1.0" xmlns="http://www.w3.org/2000/svg"
 width="25px" height="25px" viewBox="0 0 512.000000 512.000000"
 preserveAspectRatio="xMidYMid meet">

<g transform="translate(0.000000,512.000000) scale(0.100000,-0.100000)"
stroke="none">
<path d="M2449 4995 c-66 -21 -138 -72 -177 -125 -18 -25 -159 -301 -314 -615
-154 -313 -289 -582 -300 -598 -11 -15 -33 -34 -48 -42 -17 -9 -304 -55 -679
-110 -415 -60 -668 -101 -701 -114 -193 -73 -283 -308 -190 -498 27 -54 81
-111 443 -463 554 -541 554 -541 567 -588 9 -35 -4 -122 -100 -681 -60 -353
-110 -664 -110 -691 0 -244 261 -425 486 -338 33 12 312 156 620 318 536 283
561 295 614 295 53 0 78 -12 614 -295 308 -162 587 -306 620 -318 85 -33 196
-28 279 13 120 59 207 195 207 322 0 29 -50 341 -110 694 -96 556 -109 646
-100 680 13 48 11 46 557 579 371 361 426 419 453 473 93 190 3 424 -191 498
-34 13 -279 53 -701 115 -374 54 -661 100 -678 109 -15 8 -37 27 -48 42 -11
16 -144 282 -297 593 -153 311 -291 584 -306 606 -65 95 -161 146 -284 151
-51 2 -97 -3 -126 -12z m192 -211 c15 -7 36 -26 47 -41 10 -16 144 -282 297
-593 153 -311 291 -584 308 -608 32 -48 91 -95 153 -123 27 -12 254 -49 694
-113 470 -69 663 -101 689 -114 73 -38 104 -138 66 -212 -8 -16 -225 -234
-482 -485 -257 -251 -480 -475 -496 -497 -35 -52 -57 -127 -57 -192 0 -28 50
-339 110 -692 75 -437 108 -652 103 -674 -8 -44 -79 -115 -122 -123 -19 -4
-51 -2 -72 3 -21 6 -291 144 -600 306 -310 163 -581 303 -603 311 -52 19 -179
19 -231 0 -22 -8 -294 -148 -603 -310 -310 -163 -580 -301 -601 -307 -21 -5
-53 -7 -72 -3 -43 8 -114 79 -122 122 -4 20 9 121 34 269 22 130 71 419 110
642 38 223 69 428 69 456 0 65 -22 140 -57 192 -16 22 -238 246 -496 497 -257
251 -474 469 -482 485 -38 74 -7 174 66 212 26 13 219 45 690 114 728 105 719
103 810 194 37 38 69 91 152 261 337 688 487 986 505 1002 50 45 130 54 193
21z"/>
</g>
</svg>
