<?xml version="1.0" standalone="no"?>
<!DOCTYPE svg PUBLIC "-//W3C//DTD SVG 20010904//EN"
 "http://www.w3.org/TR/2001/REC-SVG-20010904/DTD/svg10.dtd">
<svg version="1.0" xmlns="http://www.w3.org/2000/svg"
 width="25px" height="25px" viewBox="0 0 512.000000 512.000000"
 preserveAspectRatio="xMidYMid meet">

<g transform="translate(0.000000,512.000000) scale(0.100000,-0.100000)"
stroke="none">
<path d="M2488 4820 c-64 -11 -152 -53 -206 -97 -88 -72 -101 -102 -287 -673
-188 -575 -186 -572 -270 -611 -37 -17 -76 -19 -603 -19 -539 0 -565 -1 -623
-20 -155 -53 -263 -178 -291 -338 -21 -125 23 -271 109 -360 21 -21 234 -181
475 -355 240 -174 445 -328 456 -342 29 -37 45 -91 39 -131 -3 -19 -81 -265
-174 -547 l-168 -512 0 -100 c0 -92 3 -106 32 -168 106 -222 361 -316 573
-210 30 16 251 171 492 345 318 232 447 320 477 327 85 19 96 12 580 -339 465
-338 503 -361 612 -375 168 -21 353 84 432 244 30 62 32 72 32 176 l0 110
-168 505 c-92 278 -170 522 -173 543 -9 49 17 114 59 154 17 16 221 167 452
334 231 167 438 323 461 347 95 99 136 254 100 387 -37 141 -127 244 -259 299
-51 20 -68 21 -648 26 l-595 5 -42 28 c-23 15 -50 44 -60 65 -11 20 -92 262
-182 537 -89 275 -169 514 -177 530 -84 167 -277 266 -455 235z"/>
</g>
</svg>
