<svg version="1.0" xmlns="http://www.w3.org/2000/svg"
 width="30px" height="30px" viewBox="0 0 512.000000 512.000000"
 preserveAspectRatio="xMidYMid meet">

<g transform="translate(0.000000,512.000000) scale(0.100000,-0.100000)"
fill="#fff" stroke="none">
<path d="M2345 4629 c-392 -41 -805 -214 -1105 -464 -99 -83 -271 -262 -342
-356 -782 -1042 -423 -2537 747 -3114 797 -393 1753 -234 2384 396 167 167
292 341 396 553 394 798 235 1752 -396 2385 -442 442 -1065 664 -1684 600z
m531 -339 c650 -117 1177 -589 1368 -1224 55 -180 71 -295 71 -506 0 -211 -16
-326 -71 -506 -191 -635 -718 -1107 -1368 -1224 -60 -11 -120 -20 -133 -20
l-23 0 0 1750 0 1750 23 0 c13 0 73 -9 133 -20z"/>
</g>
</svg>
